#!OML:ASF I:\Actors\actors\Patient Classification 2\Patient 1\Session 1\actor1.ASF
:FULLY-SPECIFIED
:DEGREES
457
root -0.594848 18.6088 6.51296 0.125509 -1.7269 -4.4768
lowerback 3.87233 1.17241 0.660242
upperback -2.85988 1.662 1.13257
thorax -5.14592 0.822431 0.66484
lowerneck -11.493 -1.81043 0.884268
upperneck 38.2818 -3.87578 2.169
head 15.3872 -1.22215 0.141414
rclavicle 9.01985e-015 -7.95139e-016
rhumerus -30.189 5.34527 -65.5509
rradius 86.2688
rwrist -33.769
rhand -5.98207 -47.3394
rfingers 7.12502
rthumb 19.8496 -76.3458
lclavicle 9.01985e-015 -7.95139e-016
lhumerus -49.2854 3.929 80.8878
lradius 45.9758
lwrist -2.46443
lhand -10.6265 -28.0604
lfingers 7.12502
lthumb 15.3802 1.34756
rfemur 0 0 0
rtibia 0
rfoot 0 0
rtoes 0
lfemur -1.98354 -5.23625 -10.5506
ltibia 24.4022
lfoot -25.3718 12.0709
ltoes -56.123
458
root -0.598941 18.6096 6.52315 0.18997 -1.62611 -4.45061
lowerback 3.83327 1.13981 0.649658
upperback -2.89192 1.61762 1.13065
thorax -5.157 0.80079 0.672953
lowerneck -11.3782 -1.83176 0.776515
upperneck 38.2818 -3.90302 2.24234
head 15.365 -1.24079 0.188808
rclavicle -4.94477e-015 -1.03368e-014
rhumerus -30.3508 5.38204 -65.6978
rradius 86.2047
rwrist -33.652
rhand -5.93606 -47.2234
rfingers 7.12502
rthumb 19.8938 -76.2252
lclavicle -4.94477e-015 -1.03368e-014
lhumerus -49.1481 3.57092 81.2784
lradius 46.5175
lwrist -1.49334
lhand -10.7723 -26.1523
lfingers 7.12502
lthumb 15.2399 3.26634
rfemur 0 0 0
rtibia 0
rfoot 0 0
rtoes 0
lfemur -2.02716 -5.38049 -10.5772
ltibia 24.3796
lfoot -25.4066 12.1023
ltoes -56.0725
459
root -0.603017 18.6101 6.53184 0.228017 -1.59939 -4.4452
lowerback 3.82813 1.1197 0.641606
upperback -2.9107 1.59073 1.13642
thorax -5.17387 0.787839 0.685584
lowerneck -11.2399 -1.84651 0.770359
upperneck 38.2402 -3.91675 2.23656
head 15.3113 -1.2511 0.186792
rclavicle 2.01269e-014 1.27222e-014
rhumerus -30.3339 5.60274 -65.7769
rradius 86.0009
rwrist -33.6748
rhand -6.04137 -47.1696
rfingers 7.12502
rthumb 19.7926 -76.1818
lclavicle 2.01269e-014 1.27222e-014
lhumerus -49.0162 3.34629 81.4827
lradius 46.794
lwrist -0.960275
lhand -10.8489 -25.5193
lfingers 7.12502
lthumb 15.166 3.90497
rfemur 0 0 0
rtibia 0
rfoot 0 0
rtoes 0
lfemur -2.02136 -5.48834 -10.5926
ltibia 24.3473
lfoot -25.475 12.1597
ltoes -56.0399
460
root -0.607282 18.6115 6.53995 0.242849 -1.54637 -4.45264
lowerback 3.83204 1.08844 0.650934
upperback -2.89468 1.54992 1.14917
thorax -5.1591 0.767548 0.697004
lowerneck -11.1213 -1.85132 0.743802
upperneck 38.1094 -3.91027 2.24293
head 15.2186 -1.25546 0.196268
rclavicle 2.21893e-014 -5.56597e-015
rhumerus -30.3266 5.77147 -65.8337
rradius 85.8603
rwrist -33.6936
rhand -6.09881 -47.1669
rfingers 7.12502
rthumb 19.7374 -76.1849
lclavicle 2.21893e-014 -5.56597e-015
lhumerus -48.783 3.39 81.4849
lradius 46.8275
lwrist -0.932285
lhand -10.6757 -25.5492
lfingers 7.12502
lthumb 15.3329 3.86237
rfemur 0 0 0
rtibia 0
rfoot 0 0
rtoes 0
lfemur -2.00624 -5.57108 -10.5862
ltibia 24.3184
lfoot -25.4909 12.225
ltoes -56.0911
461
root -0.611026 18.6134 6.54726 0.266735 -1.45663 -4.45025
lowerback 3.81633 1.06474 0.665177
upperback -2.87377 1.51877 1.15372
thorax -5.12773 0.751754 0.696787
lowerneck -10.9425 -1.87293 0.695837
upperneck 37.874 -3.92074 2.26142
head 15.0617 -1.27085 0.212466
rclavicle 2.5842e-014 8.74653e-015
rhumerus -30.6482 5.60627 -65.9625
rradius 86.0336
rwrist -33.3222
rhand -6.11337 -47.195
rfingers 7.12502
rthumb 19.7234 -76.2144
lclavicle 2.5842e-014 8.74653e-015
lhumerus -48.513 3.42563 81.4985
lradius 46.8228
lwrist -1.03801
lhand -10.4308 -25.6263
lfingers 7.12502
lthumb 15.5687 3.76709
rfemur 0 0 0
rtibia 0
rfoot 0 0
rtoes 0
lfemur -2.02409 -5.66474 -10.5868
ltibia 24.3051
lfoot -25.4444 12.291
ltoes -56.1771
462
root -0.615523 18.6145 6.55336 0.311865 -1.36094 -4.44757
lowerback 3.78954 1.03183 0.647219
upperback -2.86866 1.47306 1.15078
thorax -5.10705 0.729742 0.708092
lowerneck -10.7409 -1.90139 0.752948
upperneck 37.611 -3.94464 2.21447
head 14.8833 -1.2869 0.180736
rclavicle 6.65929e-015 1.51076e-014
rhumerus -30.9897 5.46137 -66.1469
rradius 86.1507
rwrist -32.8141
rhand -6.31151 -47.127
rfingers 7.12502
rthumb 19.5329 -76.1658
lclavicle 6.65929e-015 1.51076e-014
lhumerus -48.2888 3.24801 81.6862
lradius 47.2675
lwrist -1.11408
lhand -10.1981 -23.9133
lfingers 7.12502
lthumb 15.7929 5.46249
rfemur 0 0 0
rtibia 0
rfoot 0 0
rtoes 0
lfemur -2.08014 -5.70798 -10.5715
ltibia 24.3052
lfoot -25.3905 12.3167
ltoes -56.2496
463
root -0.621733 18.6149 6.55954 0.371941 -1.28359 -4.45263
lowerback 3.78047 0.997602 0.620926
upperback -2.8822 1.42518 1.1379
thorax -5.11588 0.706689 0.713461
lowerneck -10.6512 -1.9164 0.795392
upperneck 37.4418 -3.97031 2.21703
head 14.7799 -1.29621 0.17098
rclavicle 2.77056e-014 2.94201e-014
rhumerus -31.2498 5.42834 -66.3324
rradius 86.1109
rwrist -32.3453
rhand -6.54518 -47.0162
rfingers 7.12502
rthumb 19.3082 -76.0777
lclavicle 2.77056e-014 2.94201e-014
lhumerus -48.0691 3.18322 81.7229
lradius 47.4105
lwrist -1.12995
lhand -10.0674 -23.3956
lfingers 7.12502
lthumb 15.9187 5.97015
rfemur 0 0 0
rtibia 0
rfoot 0 0
rtoes 0
lfemur -2.15644 -5.71143 -10.5337
ltibia 24.3128
lfoot -25.3661 12.3019
ltoes -56.2348
464
root -0.627152 18.6147 6.56585 0.406521 -1.23178 -4.47074
lowerback 3.78251 0.973426 0.620836
upperback -2.88038 1.39227 1.1255
thorax -5.11449 0.69013 0.703335
lowerneck -10.6125 -1.92099 0.746892
upperneck 37.2863 -3.99338 2.31614
head 14.7009 -1.30327 0.217211
rclavicle -4.84538e-015 9.93923e-015
rhumerus -31.4091 5.63302 -66.4177
rradius 85.9484
rwrist -32.03
rhand -6.79262 -46.9391
rfingers 7.12502
rthumb 19.0703 -76.0242
lclavicle -4.84538e-015 9.93923e-015
lhumerus -47.8282 3.2168 81.6943
lradius 47.2464
lwrist -1.38656
lhand -10.3006 -23.9857
lfingers 7.12502
lthumb 15.6942 5.39783
rfemur 0 0 0
rtibia 0
rfoot 0 0
rtoes 0
lfemur -2.20113 -5.73565 -10.4937
ltibia 24.3288
lfoot -25.3709 12.285
ltoes -56.1471
465
root -0.632251 18.6149 6.57231 0.442174 -1.1902 -4.51214
lowerback 3.7263 0.947955 0.631269
upperback -2.8504 1.35764 1.12668
thorax -5.05054 0.672745 0.702709
lowerneck -10.5377 -1.92723 0.6486
upperneck 37.0572 -4.02511 2.47945
head 14.5822 -1.31431 0.297438
rclavicle -6.21202e-016 9.14409e-015
rhumerus -31.3627 6.07863 -66.4448
rradius 85.5756
rwrist -31.8855
rhand -7.24588 -46.7883
rfingers 7.12502
rthumb 18.6343 -75.9158
lclavicle -6.21202e-016 9.14409e-015
lhumerus -47.5199 3.25929 81.694
lradius 46.8999
lwrist -1.87613
lhand -10.8127 -24.9322
lfingers 7.12502
lthumb 15.2009 4.48935
rfemur 0 0 0
rtibia 0
rfoot 0 0
rtoes 0
lfemur -2.24094 -5.76569 -10.4299
ltibia 24.3482
lfoot -25.3772 12.2366
ltoes -56.0776
466
root -0.638897 18.6163 6.57916 0.517877 -1.12699 -4.56553
lowerback 3.62524 0.924891 0.647879
upperback -2.83604 1.32578 1.11939
thorax -4.97705 0.656408 0.690181
lowerneck -10.4332 -1.93255 0.630171
upperneck 36.7982 -4.05594 2.59502
head 14.4402 -1.32111 0.343797
rclavicle -1.78906e-015 1.35174e-014
rhumerus -31.5073 6.27245 -66.5941
rradius 85.3018
rwrist -31.4825
rhand -7.70555 -46.6515
rfingers 7.12502
rthumb 18.1921 -75.8207
lclavicle -1.78906e-015 1.35174e-014
lhumerus -47.2149 3.21328 81.7426
lradius 46.6666
lwrist -2.15766
lhand -11.0698 -25.3635
lfingers 7.12502
lthumb 14.9533 4.0767
rfemur 0 0 0
rtibia 0
rfoot 0 0
rtoes 0
lfemur -2.32371 -5.78384 -10.3325
ltibia 24.3594
lfoot -25.3653 12.1524
ltoes -56.0556
467
root -0.64456 18.6176 6.58548 0.596284 -1.03522 -4.61249
lowerback 3.5349 0.898008 0.670146
upperback -2.83098 1.28915 1.10617
thorax -4.91912 0.637366 0.668392
lowerneck -10.3156 -1.93087 0.731329
upperneck 36.5088 -4.05548 2.57648
head 14.2747 -1.31656 0.318595
rclavicle 1.60022e-014 3.18055e-015
rhumerus -31.8449 6.21021 -66.8303
rradius 85.1106
rwrist -30.732
rhand -7.92641 -46.6164
rfingers 7.12502
rthumb 17.9796 -75.8054
lclavicle 1.60022e-014 3.18055e-015
lhumerus -46.915 3.17117 81.8156
lradius 46.5286
lwrist -2.2376
lhand -11.0968 -25.3598
lfingers 7.12502
lthumb 14.9273 4.08236
rfemur 0 0 0
rtibia 0
rfoot 0 0
rtoes 0
lfemur -2.41317 -5.83767 -10.2447
ltibia 24.3627
lfoot -25.3879 12.1346
ltoes -56.0667
468
root -0.649252 18.6185 6.59207 0.678138 -0.99551 -4.60756
lowerback 3.41081 0.881239 0.606191
upperback -2.81139 1.26084 1.10136
thorax -4.82898 0.625653 0.703507
lowerneck -10.2098 -1.93712 0.830654
upperneck 36.208 -4.04466 2.49848
head 14.1059 -1.31607 0.271107
rclavicle 4.07509e-015 5.96354e-015
rhumerus -32.0644 6.0262 -67.1152
rradius 84.718
rwrist -29.577
rhand -8.02338 -46.5453
rfingers 7.12502
rthumb 17.8863 -75.7427
lclavicle 4.07509e-015 5.96354e-015
lhumerus -46.5265 3.27043 81.8773
lradius 46.2456
lwrist -2.44258
lhand -11.0162 -25.3316
lfingers 7.12502
lthumb 15.0049 4.10473
rfemur 0 0 0
rtibia 0
rfoot 0 0
rtoes 0
lfemur -2.48794 -5.90243 -10.2383
ltibia 24.3691
lfoot -25.4491 12.2211
ltoes -56.1273
